{"title":"Cowboys.and.Indians.2011.DVDRip.XviD-miRaGe","uid":7211350,"size":734490741,"categoryP":"video","categoryS":"movies","magnet":"?xt=urn:btih:b70f730f4a628f3d7086c31fdc9aa2b946231389&amp;dn=Cowboys.and.Indians.2011.DVDRip.XviD-miRaGe&amp;tr=udp%3A%2F%2Ftracker.openbittorrent.com%3A80&amp;tr=udp%3A%2F%2Fopen.demonii.com%3A1337&amp;tr=udp%3A%2F%2Ftracker.coppersurfer.tk%3A6969&amp;tr=udp%3A%2F%2Fexodus.desync.com%3A6969","seeders":0,"leechers":1,"uploader":"maximersk","files":4,"time":1335247873,"description":"Cowboys.and.Indians.2011.DVDRip.XviD-miRaGe\n\n\n\n\n\n\n\nimdb: http://www.imdb.com/title/tt1886504/\ntrailer: http://www.imdb.com/video/screenplay/vi2686362393/\nrating: pg-13\nruntime: 86 min\ngenre: Adventure | Family | Western\nrelease date: 2011\nplot: With the fate of the frontier hanging in the balance, a former cavalry officer is called back into action to rescue a beautiful maiden from the clutches a band of renegade Black Claw Indians led by a frightening medicine man.\n\n\nInfo\n____\nFormat : AVI\n\nFormat/Info : Audio Video Interleave\n\nFile size : 700 MiB\n\nDuration : 1h 25mn\n\nOverall bit rate mode : Variable\n\nOverall bit rate : 1 147 Kbps\n\n\nVideo\n_____\nID : 0\n\nFormat : MPEG-4 Visual\n\nCodec ID : XVID\n\nCodec ID/Hint : XviD\n\nDuration : 1h 25mn\n\nBit rate : 1 020 Kbps\n\nWidth : 544 pixels\n\nHeight : 304 pixels\n\nDisplay aspect ratio : 16:9\n\nFrame rate : 23.976 fps\n\nColor space : YUV\n\nChroma subsampling : 4:2:0\n\nBit depth : 8 bits\n\nScan type : Progressive\n\nCompression mode : Lossy\n\nBits/(Pixel*Frame) : 0.257\n\nStream size : 623 MiB (89%)\n\nWriting library : XviD 64\n\n\n\nAudio\n_____\nID : 1\n\nFormat : MPEG Audio\n\nFormat version : Version 1\n\nFormat profile : Layer 3\n\nMode : Joint stereo\n\nMode extension : MS Stereo\n\nCodec ID : 55\n\nCodec ID/Hint : MP3\n\nDuration : 1h 25mn\n\nBit rate mode : Variable\n\nBit rate : 115 Kbps\n\nNominal bit rate : 128 Kbps\n\nChannel(s) : 2 channels\n\nSampling rate : 48.0 KHz\n\nCompression mode : Lossy\n\nStream size : 69.9 MiB (10%)\n\nAlignment : Aligned on interleaves\n\nInterleave, duration : 24 ms (0.58 video frame)\n\nInterleave, preload duration : 160 ms\n\n\n","torrent":{"xt":"urn:btih:b70f730f4a628f3d7086c31fdc9aa2b946231389","amp;dn":"Cowboys.and.Indians.2011.DVDRip.XviD-miRaGe","amp;tr":["udp%3A%2F%2Ftracker.openbittorrent.com%3A80","udp%3A%2F%2Fopen.demonii.com%3A1337","udp%3A%2F%2Ftracker.coppersurfer.tk%3A6969","udp%3A%2F%2Fexodus.desync.com%3A6969"],"infoHash":"b70f730f4a628f3d7086c31fdc9aa2b946231389","infoHashBuffer":{"type":"Buffer","data":[183,15,115,15,74,98,143,61,112,134,195,31,220,154,162,185,70,35,19,137]},"announce":[],"urlList":[]}}